<svg xmlns="http://www.w3.org/2000/svg" xmlns:xlink="http://www.w3.org/1999/xlink" viewBox="0 0 144.39 144.39"><defs><style>.cls-1{fill:#3d2e60;}.cls-2{fill:url(#Безымянный_градиент_2);}.cls-3{fill:#b367f1;}</style><linearGradient id="Безымянный_градиент_2" x1="-1117.99" y1="-729.33" x2="-998.84" y2="-729.33" gradientTransform="translate(-665.09 1130.61) rotate(90)" gradientUnits="userSpaceOnUse"><stop offset="0" stop-color="#e592fb"/><stop offset="1" stop-color="#7c5be6"/></linearGradient></defs><g id="Слой_2" data-name="Слой 2"><g id="OBJECTS"><circle class="cls-1" cx="72.19" cy="72.19" r="72.19" transform="translate(-19.12 26.53) rotate(-18.43)"/><path class="cls-2" d="M37,120.44a58.53,58.53,0,0,1-7.08-6A59.58,59.58,0,1,1,114.07,30a6.26,6.26,0,0,1-8.84,8.87,47.07,47.07,0,1,0,.12,66.55,6.26,6.26,0,0,1,8.87,8.84A59.62,59.62,0,0,1,37,120.44Z"/><path class="cls-3" d="M51.56,100.29a37.36,37.36,0,0,1-4.09-3.49A34.48,34.48,0,0,1,96.14,47.94a6.36,6.36,0,0,1-9,9,21.76,21.76,0,1,0,0,30.78,6.36,6.36,0,1,1,9,9,34.52,34.52,0,0,1-44.66,3.58Z"/></g></g></svg>