<svg xmlns="http://www.w3.org/2000/svg" xmlns:xlink="http://www.w3.org/1999/xlink" viewBox="0 0 103.61 119.16"><defs><style>.cls-1{fill:url(#Безымянный_градиент_2);}.cls-2{fill:#b367f1;}</style><linearGradient id="Безымянный_градиент_2" x1="-1331.28" y1="-822.97" x2="-1212.12" y2="-822.97" gradientTransform="translate(-771.17 1331.28) rotate(90)" gradientUnits="userSpaceOnUse"><stop offset="0" stop-color="#e592fb"/><stop offset="1" stop-color="#7c5be6"/></linearGradient></defs><g id="Слой_2" data-name="Слой 2"><g id="OBJECTS"><path class="cls-1" d="M24.6,107.83a61.21,61.21,0,0,1-7.08-6,59.58,59.58,0,1,1,84.11-84.4,6.26,6.26,0,1,1-8.84,8.86A47.06,47.06,0,0,0,26.36,92.91a47.07,47.07,0,0,0,66.56-.11,6.25,6.25,0,1,1,8.86,8.83,59.6,59.6,0,0,1-77.18,6.2Z"/><path class="cls-2" d="M39.13,87.67A35.53,35.53,0,0,1,35,84.18,34.48,34.48,0,0,1,83.7,35.32a6.36,6.36,0,0,1-9,9,21.76,21.76,0,1,0,0,30.77,6.36,6.36,0,1,1,9,9,34.49,34.49,0,0,1-44.66,3.58Z"/></g></g></svg>